<?xml version="1.0" encoding="UTF-8" standalone="yes"?><svg xmlns="http://www.w3.org/2000/svg" viewBox="0 0 880 880" style="zoom: 1;"><path d="M869.27,440 c0,237.08 -192.19,429.27 -429.27,429.27 s-429.27,-192.19 -429.27,-429.27 s192.19,-429.27 429.27,-429.27 s429.27,192.19 429.27,429.27  z " stroke-width="15" stroke="#000" fill="green"></path><g stroke-width="3.6"><path d="m640 784.8c-123.76 71.453-276.24 71.453-400 0l200-346.41 200 346.41z"></path><path d="m40 440c-1.1e-5 -142.91 76.24-274.96 200-346.41l200 346.41-400 1e-4z"></path><path d="M640,93.59 c123.76,71.453 200,203.5 200,346.41 h-400 l200,-346.41  z "></path></g><path d="M491.130005,440 c0,28.237 -22.89,51.127 -51.127,51.127 s-51.127,-22.89 -51.127,-51.127 s22.89,-51.127 51.127,-51.127 s51.127,22.89 51.127,51.127  z " stroke-width="39.118" stroke="green"></path></svg>